# xmcd CD database file
#
# Track frame offsets:
#	150
#	39802
#	79151
#	108238
#	136703
#	167029
#	198765
#
# Disc length: 3022 seconds
#
# Revision: 0
# Processed by: cddbd v1.5.2PL0 Copyright (c) Steve Scherf et al.
# Submitted via: CDex 1.79
#
DISCID=480bcc07
DTITLE=Gary Burton Quartet - Real Life Hits 1985
DYEAR=1985
DGENRE=Jazz
TTITLE0=Syndrome
TTITLE1=The Beatles
TTITLE2=Fleurette Africaine
TTITLE3=Ladies in Mercedes
TTITLE4=Real Life Hits
TTITLE5=I Need You Here
TTITLE6=Ivanushka Durachok
EXTD=YEAR: 1985
EXTT0=
EXTT1=
EXTT2=
EXTT3=
EXTT4=
EXTT5=
EXTT6=
PLAYORDER=
